<svg width="48" height="48" viewBox="0 0 48 48" fill="none" xmlns="http://www.w3.org/2000/svg">
<path d="M18.5395 3.60321C15.2103 4.26028 14.0276 4.74214 11.1803 6.58195C6.23033 9.77971 2.20027 15.0801 0.886124 20.0301C-0.73466 26.2942 -0.12139 32.6897 2.63832 37.9901C4.52194 41.6697 8.11394 45.875 9.34048 45.875C10.4794 45.875 14.6847 41.2317 14.9913 39.6109C15.0351 39.3043 15.5608 38.1653 16.1303 37.0264C16.9625 35.318 17.0502 34.88 16.6121 34.3105C16.3055 33.9162 15.8674 33.741 15.6484 33.8724C15.4294 34.0039 15.2542 33.8724 15.2542 33.6096C15.2542 33.3468 15.0789 33.2154 14.8599 33.3468C14.6409 33.522 14.3781 33.4782 14.2904 33.2592C14.2466 33.084 13.502 32.4707 12.7135 31.9012C10.4794 30.3242 10.8737 29.7548 15.4732 28.1778C15.736 28.0902 16.3493 27.8712 16.9187 27.6959C17.4444 27.5207 17.8825 27.1703 17.8825 26.9074C17.8825 26.6446 18.0139 26.557 18.1453 26.7322C18.4519 26.9951 20.5107 24.9362 20.5107 24.3668C20.5107 23.8411 21.6935 22.4393 23.7085 20.3805C24.8474 19.2854 25.8111 18.7159 26.5996 18.7159C27.2567 18.7159 28.0014 18.4969 28.308 18.1903C28.6147 17.8836 28.8337 17.796 28.8337 17.9712C28.8337 18.5845 32.6009 15.1677 33.696 13.5469C34.7474 12.0576 36.0615 11.97 36.9814 13.3717C37.4195 14.0288 37.7261 14.9487 37.6823 15.4305C37.5947 15.9562 37.7699 16.8323 37.9889 17.4018C38.2956 18.1465 38.427 18.2779 38.427 17.7522C38.4708 17.2704 38.6898 17.0951 39.084 17.2266C39.4345 17.358 39.8287 17.2704 40.004 17.0075C40.1792 16.7009 40.442 16.7009 40.8362 17.0951C41.1867 17.358 41.3619 17.7522 41.2305 17.9274C41.1429 18.1465 41.2743 18.2779 41.4933 18.2779C42.5008 18.2779 41.8876 20.0739 40.442 21.5632C38.1203 23.8411 37.0252 26.6884 37.288 29.8862C37.5071 33.084 37.6385 33.5658 38.4708 34.5295C39.2593 35.4494 39.2593 37.0702 38.5146 39.6547C38.208 40.706 37.9013 42.064 37.8137 42.721C37.3319 45.6998 37.3319 45.656 38.5584 45.5684C39.8287 45.4808 40.4858 45.0865 42.3256 43.0715C42.9827 42.3706 43.7274 41.5821 43.9464 41.3193C44.9977 40.1804 46.2681 37.5959 47.1442 34.7047C47.9327 32.2079 48.0641 30.7185 47.9765 26.6008C47.9327 23.8411 47.6698 21.2566 47.4508 20.9062C47.2318 20.5557 47.0127 20.0301 46.9689 19.811C46.9251 19.5482 46.7061 18.8911 46.4433 18.2779C46.2243 17.6646 46.049 17.0951 46.049 16.9637C46.049 16.8323 45.3482 15.562 44.4283 14.1164C38.9526 5.44302 29.0089 1.36916 18.5395 3.60321ZM19.1528 25.0238C18.4957 25.6809 15.517 27.5207 14.9037 27.6521C14.5095 27.6959 13.7648 27.9588 13.3267 28.134C12.7573 28.3968 12.4068 28.3092 12.2754 28.0026C12.0126 27.2141 12.144 26.8636 12.7135 26.7322C16.5683 25.8999 17.7072 25.5933 18.1015 25.2429C18.4957 24.8486 19.547 24.6734 19.1528 25.0238Z" fill="#FFC249"/>
<path d="M28.6149 21.1688C27.3445 22.3077 27.3445 22.3077 28.3959 22.0011C29.7538 21.6068 30.2795 21.125 30.1043 20.5117C30.0166 20.2489 29.3596 20.5555 28.6149 21.1688Z" fill="#FFC249"/>
</svg>
